<?xml version="1.0" encoding="UTF-8"?>
<svg width="124px" height="36px" viewBox="0 0 124 36" version="1.1" xmlns="http://www.w3.org/2000/svg" xmlns:xlink="http://www.w3.org/1999/xlink">
    <title>Logo instance</title>
    <g id="Page-1" stroke="none" stroke-width="1" fill="none" fill-rule="evenodd">
        <g id="Desktop-Home" transform="translate(-51.000000, -24.000000)">
            <rect fill="#2A2A2A" x="0" y="0" width="1440" height="1397"></rect>
            <rect id="Rectangle" fill="#000000" x="0" y="0" width="1440" height="82"></rect>
            <g id="Group" transform="translate(51.000000, 18.000000)">
                <g id="Group-2" transform="translate(0.671997, 6.249998)">
                    <path d="M112.068031,22.2000008 C111.288025,22.2000008 110.563026,22.0750009 109.893028,21.8250003 C109.22303,21.5750006 108.648033,21.2249999 108.16803,20.7750011 C107.688026,20.3250023 107.308029,19.7950019 107.02803,19.1850009 C106.748032,18.5750028 106.608032,17.9100018 106.608032,17.1900001 C106.608032,16.4100019 106.773033,15.7000028 107.103027,15.0600016 C107.433029,14.4200014 107.898033,13.8700026 108.498032,13.4100016 C109.09803,12.9500007 109.808029,12.5900017 110.628029,12.3300019 C111.448028,12.0700015 112.358024,11.9400004 113.358032,11.9400004 C114.018028,11.9400004 114.658027,11.9950007 115.27803,12.1050015 C115.898033,12.2150017 116.438034,12.3800009 116.898033,12.6000005 L116.898033,11.8800011 C116.898033,10.0600011 115.84803,9.15000135 113.748031,9.15000135 C112.888031,9.15000135 112.068031,9.29500085 111.288032,9.58500083 C110.508026,9.87500178 109.688026,10.3100013 108.828026,10.8900012 L107.41803,7.89000127 C108.458031,7.21000004 109.538025,6.70000076 110.658028,6.36000155 C111.77803,6.02000046 112.968025,5.85000038 114.228027,5.85000038 C116.608032,5.85000038 118.448028,6.41000176 119.748032,7.53000062 C121.048027,8.65000155 121.698028,10.2900009 121.698028,12.4500009 L121.698028,16.5000013 C121.698028,16.9800012 121.773025,17.3149999 121.923026,17.5050013 C122.073028,17.6950017 122.338027,17.8100008 122.718025,17.8500004 L122.718025,21.9000016 C122.298026,22.0000016 121.918029,22.0650002 121.578025,22.0950013 C121.238029,22.1250014 120.928032,22.1400005 120.648033,22.1400005 C119.748032,22.1400005 119.068031,21.9650021 118.608032,21.6150014 C118.148033,21.2650007 117.858032,20.7700018 117.738029,20.1300006 L117.648033,19.4100017 C116.948029,20.3100013 116.113029,21.000002 115.143028,21.4800009 C114.173027,21.9600008 113.148025,22.2000008 112.068031,22.2000008 L112.068031,22.2000008 Z M113.478058,18.7500019 C113.998054,18.7500019 114.503059,18.6600017 114.993057,18.4800014 C115.483055,18.3000011 115.888061,18.0600014 116.208061,17.7600001 C116.66806,17.4000016 116.898064,17.0200004 116.898064,16.6200008 L116.898064,15.1200008 C116.478058,14.960001 116.023056,14.835001 115.533058,14.7450008 C115.04306,14.6550026 114.588059,14.6100006 114.16806,14.6100006 C113.288063,14.6100006 112.563057,14.8100014 111.993057,15.210001 C111.423058,15.6100006 111.138062,16.130001 111.138062,16.7700023 C111.138062,17.3500021 111.358063,17.8250008 111.798058,18.1950016 C112.23806,18.5650022 112.798058,18.7500019 113.478058,18.7500019 L113.478058,18.7500019 Z M91.8480225,19.0200021 L99.8880233,9.48000048 L92.2680206,9.48000048 L92.2680206,6.15000057 L104.898026,6.15000057 L104.898026,9.03000072 L96.9180222,18.5700011 L105.108025,18.5700011 L105.108025,21.9000015 L91.8480225,21.9000015 L91.8480225,19.0200021 Z M89.5980911,21.9000015 L84.7980879,21.9000015 L84.7980879,13.0500011 C84.7980879,12.0100018 84.6030875,11.2550009 84.2130886,10.7850018 C83.8230888,10.3150002 83.3080901,10.0799999 82.6680908,10.0799999 C82.3280865,10.0799999 81.9880904,10.1499993 81.6480861,10.2900009 C81.30809,10.4300021 80.9780882,10.6250018 80.6580886,10.8750019 C80.338089,11.1250016 80.0530928,11.4200018 79.8030929,11.7600002 C79.5530925,12.100002 79.3580931,12.4700011 79.2180859,12.8700008 L79.2180859,21.9000015 L74.4180908,21.9000015 L74.4180908,6.15000057 L78.7380903,6.15000057 L78.7380903,8.79000092 C79.3180847,7.85000038 80.1380841,7.12500096 81.1980891,6.61500073 C82.258094,6.10500145 83.4780954,5.85000038 84.8580932,5.85000038 C85.8780898,5.85000038 86.6980888,6.03500175 87.318092,6.40500164 C87.9380944,6.77500151 88.4180908,7.25500195 88.7580943,7.84500122 C89.0980904,8.43500217 89.3230894,9.08000263 89.4330894,9.78000069 C89.5430902,10.4799992 89.5980911,11.1599998 89.5980911,11.8200016 L89.5980911,21.9000015 Z M61.3080218,22.2000008 C60.5280227,22.2000008 59.8030244,22.0750009 59.1330225,21.8250003 C58.4630203,21.5750006 57.8880233,21.2249999 57.4080239,20.7750011 C56.9280243,20.3250023 56.5480232,19.7950019 56.2680244,19.1850009 C55.9880219,18.5750028 55.8480225,17.9100018 55.8480225,17.1900001 C55.8480225,16.4100019 56.0130234,15.7000028 56.3430214,15.0600016 C56.6730232,14.4200014 57.1380234,13.8700026 57.7380219,13.4100016 C58.3380241,12.9500007 59.0480233,12.5900017 59.868023,12.3300019 C60.6880226,12.0700015 61.5980226,11.9400004 62.5980226,11.9400004 C63.2580226,11.9400004 63.8980219,11.9950007 64.5180248,12.1050015 C65.1380201,12.2150017 65.6780205,12.3800009 66.1380202,12.6000005 L66.1380202,11.8800011 C66.1380202,10.0600011 65.0880171,9.15000135 62.9880219,9.15000135 C62.1280212,9.15000135 61.3080218,9.29500085 60.5280227,9.58500083 C59.7480241,9.87500178 58.9280244,10.3100013 58.0680237,10.8900012 L56.6580238,7.89000127 C57.698021,7.21000004 58.7780229,6.70000076 59.8980218,6.36000155 C61.0180209,6.02000046 62.2080233,5.85000038 63.4680217,5.85000038 C65.8480225,5.85000038 67.6880233,6.41000176 68.9880264,7.53000062 C70.2880218,8.65000155 70.9380233,10.2900009 70.9380233,12.4500009 L70.9380233,16.5000013 C70.9380233,16.9800012 71.0130203,17.3149999 71.1630218,17.5050013 C71.3130233,17.6950017 71.5780222,17.8100008 71.9580269,17.8500004 L71.9580269,21.9000016 C71.5380218,22.0000016 71.1580238,22.0650002 70.8180281,22.0950013 C70.4780237,22.1250014 70.1680265,22.1400005 69.8880202,22.1400005 C68.9880187,22.1400005 68.3080253,21.9650021 67.8480225,21.6150014 C67.3880279,21.2650007 67.0980265,20.7700018 66.9780236,20.1300006 L66.8880202,19.4100017 C66.1880232,20.3100013 65.3530236,21.000002 64.3830221,21.4800009 C63.4130211,21.9600008 62.3880234,22.2000008 61.3080218,22.2000008 L61.3080218,22.2000008 Z M62.7180519,18.7500019 C63.2380524,18.7500019 63.7430536,18.6600017 64.2330512,18.4800014 C64.7230492,18.3000011 65.1280556,18.0600014 65.4480553,17.7600001 C65.9080545,17.4000016 66.1380501,17.0200004 66.1380501,16.6200008 L66.1380501,15.1200008 C65.7180521,14.960001 65.2630501,14.835001 64.7730524,14.7450008 C64.2830544,14.6550026 63.8280527,14.6100006 63.4080544,14.6100006 C62.5280532,14.6100006 61.8030548,14.8100014 61.2330551,15.210001 C60.6630516,15.6100006 60.3780518,16.130001 60.3780518,16.7700023 C60.3780518,17.3500021 60.598053,17.8250008 61.0380516,18.1950016 C61.478054,18.5650022 62.0380554,18.7500019 62.7180519,18.7500019 L62.7180519,18.7500019 Z M53.6580276,21.9000015 L48.8580244,21.9000015 L48.8580244,13.0500011 C48.8580244,12.0100018 48.6630241,11.2550009 48.2730251,10.7850018 C47.8830253,10.3150002 47.3680266,10.0799999 46.7280274,10.0799999 C46.3880267,10.0799999 46.0480269,10.1499993 45.7080267,10.2900009 C45.3680265,10.4300021 45.0380248,10.6250018 44.7180251,10.8750019 C44.3980255,11.1250016 44.1130252,11.4200018 43.8630253,11.7600002 C43.6130254,12.100002 43.418026,12.4700011 43.2780265,12.8700008 L43.2780265,21.9000015 L38.4780273,21.9000015 L38.4780273,6.15000057 L42.7980268,6.15000057 L42.7980268,8.79000092 C43.3780248,7.85000038 44.1980243,7.12500096 45.2580256,6.61500073 C46.3180269,6.10500145 47.5380247,5.85000038 48.9180252,5.85000038 C49.9380263,5.85000038 50.7580253,6.03500175 51.3780249,6.40500164 C51.9980273,6.77500151 52.4780273,7.25500195 52.8180272,7.84500122 C53.1580269,8.43500217 53.3830259,9.08000263 53.4930259,9.78000069 C53.6030268,10.4799992 53.6580276,11.1599998 53.6580276,11.8200016 L53.6580276,21.9000015 Z M27.6780492,22.2000008 C26.3380473,22.2000008 25.1430474,21.9800012 24.0930484,21.5400002 C23.0430471,21.1000001 22.1580467,20.5050011 21.4380475,19.7550011 C20.7180481,19.0050012 20.173048,18.1350017 19.8030472,17.1450018 C19.4330463,16.1550019 19.2480469,15.1200009 19.2480469,14.0400006 C19.2480469,12.9600009 19.4330463,11.9250008 19.8030472,10.9350014 C20.173048,9.94500148 20.7180481,9.07500082 21.4380475,8.32500062 C22.1580467,7.57500164 23.0430471,6.97500129 24.0930484,6.52499962 C25.1430474,6.0749998 26.3380473,5.85000038 27.6780492,5.85000038 C29.0180476,5.85000038 30.2080475,6.07500172 31.2480469,6.52499962 C32.2880464,6.97500129 33.1680472,7.57500164 33.8880484,8.32500062 C34.6080456,9.07500082 35.1580451,9.94500148 35.5380459,10.9350014 C35.9180467,11.9250008 36.1080456,12.9600009 36.1080456,14.0400006 C36.1080456,15.1200009 35.9230482,16.1550019 35.5530495,17.1450018 C35.1830498,18.1350017 34.6380479,19.0050012 33.9180467,19.7550011 C33.1980495,20.5050011 32.3130471,21.1000001 31.2630486,21.5400002 C30.2130471,21.9800012 29.0180476,22.2000008 27.6780492,22.2000008 L27.6780492,22.2000008 Z M24.1679688,14.0400009 C24.1679688,15.2800005 24.4979687,16.2750015 25.1579705,17.0250015 C25.8179704,17.7750015 26.6579705,18.1500015 27.677971,18.1500015 C28.1779691,18.1500015 28.63797,18.0500012 29.0579705,17.8500002 C29.4779705,17.6500015 29.84297,17.3700009 30.1529697,17.0100022 C30.462969,16.6500015 30.70797,16.2150022 30.8879704,15.7050019 C31.0679707,15.1950015 31.1579704,14.6400012 31.1579704,14.0400009 C31.1579704,12.800001 30.8279709,11.8050022 30.1679688,11.0550002 C29.5079692,10.3050022 28.6779692,9.93000221 27.677971,9.93000221 C27.1779692,9.93000221 26.7129688,10.0300026 26.2829705,10.2300014 C25.8529702,10.4300022 25.4829694,10.710001 25.1729699,11.0700015 C24.8629704,11.4300022 24.6179695,11.8650016 24.4379692,12.3750019 C24.2579689,12.8850022 24.1679688,13.4400006 24.1679688,14.0400009 L24.1679688,14.0400009 Z M10.428028,22.2000008 C9.22802748,22.2000008 8.1780269,21.9450024 7.27802777,21.4350018 C6.37802764,20.9250011 5.6680272,20.2100015 5.14802744,19.2900015 L5.14802744,21.9000023 L0.978027344,21.9000023 L0.978027344,0 L5.77802738,0 L5.77802738,8.73000184 C6.29802764,7.83000103 6.99302724,7.12500096 7.86302718,6.61500098 C8.73302713,6.10500167 9.75802629,5.85000135 10.9380287,5.85000068 C11.9380269,5.85000135 12.8580267,6.06500129 13.698029,6.49500118 C14.5380292,6.9250024 15.2580277,7.510002 15.8580285,8.25000132 C16.4580272,8.99000196 16.9280287,9.8650018 17.2680308,10.8750022 C17.6080289,11.8850025 17.7780285,12.9600009 17.7780285,14.1 C17.7780285,15.2400018 17.5930296,16.3050019 17.2230288,17.2950017 C16.8530279,18.2850016 16.3380265,19.1450014 15.6780283,19.8750024 C15.0180262,20.6050021 14.2380253,21.1750017 13.3380277,21.585001 C12.4380261,21.9950017 11.4680275,22.2000008 10.428028,22.2000008 L10.428028,22.2000008 Z M9.07807707,18.1500015 C9.63807544,18.1500015 10.1480758,18.0450018 10.6080766,17.8350008 C11.0680757,17.6249999 11.4630753,17.3400003 11.7930763,16.9800016 C12.1230755,16.6200009 12.3830757,16.1950015 12.5730761,15.7050019 C12.7630757,15.2150023 12.8580766,14.6800002 12.8580766,14.1000002 C12.8580766,13.5400009 12.7680756,13.0050011 12.5880774,12.4950009 C12.4080772,11.9850006 12.1630774,11.5400009 11.8530768,11.1600017 C11.5430762,10.7800007 11.1680765,10.4799995 10.7280768,10.2600002 C10.2880763,10.0400009 9.81807571,9.93000221 9.31807574,9.93000221 C8.55807552,9.93000221 7.8630759,10.1900024 7.23307612,10.710001 C6.60307603,11.2300015 6.11807587,11.8800011 5.77807617,12.6600017 L5.77807617,15.9600008 C6.09807635,16.6400012 6.56307604,17.1750012 7.17307624,17.5650006 C7.78307676,17.9550019 8.41807714,18.1500015 9.07807707,18.1500015 L9.07807707,18.1500015 Z" id="bonanza" fill="#FF0000"></path>
                    <path d="M45.5680161,32.0900021 C44.9280167,32.0900021 44.3146821,31.9833356 43.728016,31.7700021 C43.1413498,31.5566692 42.6293487,31.2366693 42.1920166,30.8100024 L42.5920143,30.2660024 C43.0400162,30.671336 43.5040169,30.9700021 43.9840165,31.1620023 C44.464016,31.3540029 44.9920159,31.4500027 45.5680161,31.4500027 C46.2933501,31.4500027 46.87735,31.2980024 47.3200149,30.9940022 C47.7626841,30.6900025 47.9840165,30.2660019 47.9840165,29.7220019 C47.9840165,29.4660015 47.9280168,29.2500016 47.8160173,29.0740022 C47.7040178,28.8980028 47.5360182,28.7486687 47.3120157,28.6260025 C47.0880164,28.5033358 46.8106842,28.394002 46.4800149,28.2980022 C46.1493494,28.2020024 45.7653504,28.100669 45.3280144,27.9940025 C44.8586807,27.8873356 44.4506837,27.7806691 44.1040153,27.6740016 C43.7573471,27.5673351 43.4720154,27.4393349 43.2480164,27.2900018 C43.0240136,27.1406687 42.8560143,26.9593352 42.7440147,26.746002 C42.6320152,26.5326691 42.5760155,26.2606689 42.5760155,25.9300023 C42.5760155,25.5140018 42.6560173,25.1513348 42.8160172,24.8420019 C42.976017,24.5326691 43.1973495,24.276669 43.4800148,24.0740018 C43.76268,23.871335 44.0880165,23.7193351 44.4560165,23.6180019 C44.8240165,23.5166683 45.2160149,23.4660015 45.6320153,23.4660015 C46.2826845,23.4660015 46.8586844,23.575335 47.360016,23.7940016 C47.8613471,24.0126686 48.2506827,24.2926688 48.5280153,24.6340018 L48.080017,25.0660019 C47.8026848,24.7460022 47.4426843,24.5060019 47.0000155,24.3460016 C46.5573462,24.1860018 46.0853463,24.1060019 45.5840151,24.1060019 C45.2746811,24.1060019 44.9840164,24.1380019 44.712017,24.2020021 C44.4400177,24.2660022 44.2026824,24.3673353 44.0000153,24.5060019 C43.797348,24.6446685 43.6373482,24.8233347 43.5200157,25.0420018 C43.4026832,25.2606688 43.344017,25.5193358 43.344017,25.8180017 C43.344017,26.0633354 43.384018,26.2606689 43.464016,26.4100016 C43.544014,26.5593347 43.6720161,26.687335 43.8480149,26.7940025 C44.0240135,26.9006689 44.2506829,26.9940022 44.5280153,27.0740013 C44.8053474,27.1540022 45.1360168,27.2420024 45.5200159,27.3380022 C46.0426826,27.4660015 46.5066834,27.5886687 46.9120181,27.7060023 C47.3173484,27.8233357 47.6560172,27.9673357 47.9280168,28.1380025 C48.200016,28.3086689 48.4080163,28.5113352 48.5520174,28.7460019 C48.6960145,28.9806692 48.7680168,29.2793358 48.7680168,29.6420023 C48.7680168,30.3886691 48.4773486,30.9833355 47.8960152,31.4260027 C47.3146823,31.8686682 46.538685,32.0900021 45.5680161,32.0900021 L45.5680161,32.0900021 Z M37.136047,32.0900021 C36.5493812,32.0900021 36.0053787,31.9753352 35.5040473,31.7460021 C35.002716,31.5166694 34.5680465,31.2020026 34.2000465,30.802002 C33.8320465,30.402002 33.5440483,29.9406689 33.3360481,29.4180022 C33.1280479,28.895336 33.0240479,28.3353357 33.0240479,27.7380017 C33.0240479,27.1513357 33.1280479,26.5993355 33.3360481,26.0820026 C33.5440483,25.5646686 33.82938,25.1113348 34.192047,24.722002 C34.5547142,24.3326693 34.9840469,24.0260024 35.4800491,23.8020019 C35.9760474,23.5780015 36.5120468,23.4660015 37.088047,23.4660015 C37.6747128,23.4660015 38.2187153,23.580668 38.7200469,23.8100014 C39.2213781,24.0393352 39.6533811,24.3486686 40.0160481,24.7380018 C40.3787151,25.1273356 40.6613806,25.5806685 40.8640478,26.0980013 C41.0667112,26.6153355 41.168045,27.1620026 41.168045,27.7380017 C41.168045,27.7913363 41.168045,27.8580024 41.168045,27.9380015 C41.168045,28.0180026 41.1627117,28.0686691 41.1520461,28.0900018 L33.8560486,28.0900018 C33.8880462,28.5700025 34.0000457,29.0153359 34.192047,29.4260026 C34.3840446,29.8366687 34.6267128,30.1913359 34.9200478,30.4900015 C35.2133787,30.7886686 35.5520476,31.0233353 35.9360466,31.1940022 C36.3200454,31.3646685 36.7307128,31.4500027 37.1680488,31.4500027 C37.4560471,31.4500027 37.7387159,31.4100024 38.016048,31.3300018 C38.2933807,31.2500017 38.5520435,31.140669 38.7920454,31.0020015 C39.0320473,30.8633356 39.2453802,30.6953356 39.4320484,30.4980018 C39.6187133,30.3006686 39.7653806,30.0846689 39.8720473,29.8500021 L40.5760457,30.0420018 C40.4587133,30.3406684 40.285381,30.6153355 40.0560453,30.8660019 C39.8267134,31.1166689 39.5600469,31.3326691 39.2560463,31.5140016 C38.9520491,31.6953351 38.6187131,31.8366688 38.256046,31.9380027 C37.893379,32.0393351 37.5200463,32.0900021 37.136047,32.0900021 L37.136047,32.0900021 Z M40.3999672,27.4500027 C40.367966,26.9593362 40.2586328,26.5113352 40.0719682,26.1060017 C39.8852997,25.7006692 39.6452984,25.3513364 39.3519672,25.0580024 C39.058636,24.7646684 38.7199669,24.535335 38.3359683,24.3700018 C37.9519694,24.204669 37.5413019,24.1220016 37.1039659,24.1220016 C36.6666337,24.1220016 36.2559664,24.204669 35.8719674,24.3700018 C35.4879685,24.5353355 35.1492996,24.7646694 34.8559685,25.0580024 C34.5626336,25.3513355 34.3279648,25.7033357 34.1519661,26.1140021 C33.9759674,26.5246686 33.8719673,26.9700021 33.8399658,27.4500027 L40.3999672,27.4500027 Z M31.1839619,31.9300022 L30.3839628,31.9300022 L30.3839628,27.2900019 C30.3839628,26.2340021 30.2212968,25.4553357 29.8959642,24.9540024 C29.5706295,24.4526687 29.0719612,24.2020021 28.3999616,24.2020021 C28.0586281,24.2020021 27.7332955,24.2660022 27.4239638,24.394002 C27.11463,24.5220022 26.8319632,24.7006689 26.5759627,24.9300023 C26.3199621,25.1593352 26.0986295,25.4313355 25.9119625,25.7460023 C25.7252962,26.0606689 25.5786305,26.4100028 25.4719624,26.7940025 L25.4719624,31.9300022 L24.671963,31.9300022 L24.671963,27.2900019 C24.6719611,26.2233353 24.5119612,25.4420023 24.1919616,24.946002 C23.8719617,24.4500022 23.3759616,24.2020025 22.7039624,24.2020021 C22.3626292,24.2020021 22.0399611,24.2633352 21.735962,24.3860021 C21.431963,24.5086689 21.1519623,24.684669 20.8959618,24.9140015 C20.6399613,25.1433354 20.4132939,25.4153357 20.2159615,25.7300015 C20.0186292,26.0446691 19.8666287,26.394002 19.7599621,26.7780018 L19.7599621,31.9300022 L18.9599609,31.9300022 L18.9599609,23.6100016 L19.7119618,23.6100016 L19.7119618,25.5940018 C20.0532952,24.9220019 20.5012951,24.3993354 21.0559618,24.0260019 C21.6106282,23.6526685 22.223961,23.4660015 22.8959621,23.4660015 C23.5999624,23.4660015 24.1706276,23.6740017 24.6079617,24.0900021 C25.0452958,24.5060025 25.3066298,25.0500022 25.3919621,25.722002 C26.1812958,24.2180014 27.2692951,23.4660015 28.6559622,23.4660015 C29.5626279,23.4660015 30.2106293,23.7886681 30.5999628,24.4340019 C30.9892962,25.0793352 31.1839619,25.9833355 31.1839619,27.1460019 L31.1839619,31.9300022 Z M12.4160538,32.0900021 C12.032054,32.0900021 11.6747198,32.0233354 11.3440533,31.890002 C11.0133868,31.7566687 10.7227202,31.5753352 10.4720535,31.3460026 C10.2213869,31.1166694 10.02672,30.8446691 9.88805294,30.5300023 C9.74938583,30.2153359 9.68005371,29.876669 9.68005371,29.514002 C9.68005371,29.1513355 9.76538659,28.8206689 9.93605328,28.5220023 C10.10672,28.2233352 10.3440533,27.9646694 10.6480532,27.7460021 C10.9520531,27.5273351 11.3173867,27.3566685 11.7440538,27.234002 C12.1707201,27.1113356 12.6400528,27.050003 13.152053,27.050002 C13.600054,27.050002 14.0507205,27.090002 14.5040541,27.1700019 C14.9573861,27.2500017 15.3653861,27.359335 15.7280534,27.4980019 L15.7280534,26.6820019 C15.7280534,25.8926695 15.5040542,25.2660026 15.056054,24.802002 C14.6080535,24.3380022 14.0000533,24.1060023 13.2320528,24.1060019 C12.8267193,24.1060019 12.3973865,24.1913352 11.9440537,24.3620019 C11.4907198,24.5326686 11.0293866,24.7780018 10.5600538,25.0980014 L10.256053,24.5540018 C11.3227196,23.8286681 12.3360538,23.4660015 13.2960542,23.4660015 C14.2987205,23.4660015 15.0880538,23.7566681 15.6640541,24.3380017 C16.2400544,24.9193353 16.5280546,25.7220019 16.5280546,26.746002 L16.5280546,30.8100024 C16.5280546,31.0766686 16.6453868,31.2100019 16.8800535,31.2100019 L16.8800535,31.9300024 C16.8267205,31.940669 16.7707207,31.9486683 16.7120545,31.9540024 C16.6533863,31.959335 16.6027196,31.9620018 16.560054,31.9620018 C16.3467188,31.9620018 16.1760531,31.890002 16.0480546,31.7460021 C15.9200545,31.6020021 15.8453878,31.4286689 15.8240537,31.2260016 L15.8240537,30.5380021 C15.4400532,31.039335 14.9493866,31.4233348 14.3520536,31.6900026 C13.7547209,31.9566687 13.1093874,32.0900021 12.4160538,32.0900021 L12.4160538,32.0900021 Z M12.5759983,31.4500027 C13.194665,31.4500027 13.7626647,31.3326694 14.279998,31.0980025 C14.7973309,30.8633357 15.1946652,30.5540019 15.4719993,30.170002 C15.6426651,29.946002 15.7279978,29.7326688 15.7279978,29.5300026 L15.7279978,28.0580025 C15.3439972,27.9086685 14.9439986,27.7966681 14.527999,27.722002 C14.1119988,27.647336 13.6799986,27.6100025 13.2319975,27.6100025 C12.8159982,27.6100025 12.4373312,27.6553354 12.0959978,27.7460022 C11.7546645,27.836669 11.4613314,27.9620018 11.2159987,28.1220016 C10.970665,28.2820025 10.7813311,28.4766693 10.6479979,28.7060022 C10.5146646,28.9353361 10.447998,29.1886692 10.447998,29.4660015 C10.447998,29.7433347 10.5013313,30.0046683 10.6079979,30.2500019 C10.7146645,30.4953356 10.8639975,30.7060023 11.0559979,30.8820019 C11.2479983,31.0580015 11.4746656,31.1966687 11.7359982,31.2980022 C11.9973307,31.3993349 12.2773314,31.4500027 12.5759983,31.4500027 L12.5759983,31.4500027 Z M3.93600011,32.0580022 C3.35999991,32.0580022 2.83199966,31.9380021 2.35200008,31.6980013 C1.87200002,31.458002 1.45866666,31.1380023 1.11199998,30.7380017 C0.765333238,30.3380018 0.49333318,29.8820015 0.295999978,29.3700015 C0.0986666668,28.8580014 0,28.3300015 0,27.7860021 C0,27.2206688 0.093333299,26.6766679 0.279999963,26.1540012 C0.466666546,25.6313352 0.730666464,25.1700018 1.07200001,24.7700023 C1.4133332,24.3700023 1.8213332,24.052669 2.29599989,23.8180017 C2.77066646,23.5833349 3.29599996,23.4660015 3.87199993,23.4660015 C4.59733373,23.4660015 5.22933413,23.6553349 5.76800017,24.0340018 C6.30666668,24.4126682 6.76266676,24.8740014 7.13600039,25.4180021 L7.13600039,23.6100016 L7.87200069,23.6100016 L7.87200069,32.090002 C7.87200069,32.6553353 7.76533381,33.1513347 7.55199956,33.5780023 C7.33866673,34.0046685 7.05333348,34.3593343 6.6960003,34.6420013 C6.33866665,34.9246691 5.92266608,35.1380022 5.44799998,35.2820028 C4.97333294,35.426002 4.47466639,35.498003 3.95199986,35.498003 C3.47200004,35.498003 3.03999971,35.452669 2.65600005,35.3620009 C2.27199968,35.271335 1.93333322,35.143335 1.63999987,34.9780023 C1.34666664,34.8126675 1.08533325,34.6100022 0.856000022,34.3700021 C0.626666613,34.1300028 0.42666661,33.8660028 0.255999984,33.5780023 L0.800000011,33.2100022 C1.13066659,33.7753347 1.57866655,34.1886689 2.14400002,34.4500024 C2.70933326,34.711336 3.31200018,34.8420024 3.95199986,34.8420024 C4.37866647,34.8420024 4.78133311,34.7833363 5.16000023,34.6660019 C5.53866641,34.5486676 5.8693331,34.375335 6.15200031,34.1460013 C6.43466657,33.9166675 6.65866638,33.6313356 6.82400019,33.2900025 C6.98933354,32.9486694 7.07199998,32.5486687 7.07199998,32.090002 L7.07199998,30.2660022 C6.73066678,30.810002 6.27733369,31.2446689 5.71200022,31.570002 C5.14666675,31.8953359 4.55466679,32.0580022 3.93600011,32.0580022 L3.93600011,32.0580022 Z M4.12804012,31.3700027 C4.48003993,31.3700027 4.82404021,31.3033368 5.1600402,31.1700026 C5.49604019,31.0366694 5.80004054,30.8633362 6.07204049,30.6500032 C6.34404008,30.436669 6.5680402,30.1966694 6.74404048,29.9300029 C6.92004001,29.6633368 7.02937337,29.3966702 7.07204056,29.1300028 L7.07204056,26.3940029 C6.94404012,26.0740032 6.77337361,25.7780037 6.56004029,25.5060033 C6.34670659,25.234003 6.10404014,25.0020027 5.83204018,24.8100023 C5.56003985,24.6180029 5.2667063,24.4660029 4.9520399,24.3540029 C4.6373735,24.242003 4.32004022,24.1860027 4.00004042,24.1860027 C3.49870676,24.1860027 3.05070634,24.2926693 2.65604008,24.5060029 C2.26137336,24.7193365 1.92804007,24.9966697 1.65604002,25.3380022 C1.38403997,25.6793365 1.17604004,26.0660027 1.03204011,26.4980029 C0.888040066,26.930003 0.816040039,27.3646696 0.816040039,27.8020029 C0.816040039,28.2820033 0.901373387,28.7353362 1.07204008,29.1620035 C1.24270664,29.5886694 1.47737346,29.9673363 1.77604017,30.2980029 C2.07470684,30.6286695 2.42670694,30.8900028 2.83204018,31.0820033 C3.23737285,31.2740029 3.6693729,31.3700027 4.12804012,31.3700027 L4.12804012,31.3700027 Z" id="games" fill="#FFFFFF"></path>
                </g>
            </g>
        </g>
    </g>
</svg>